# xmcd CD database file
#
# Track frame offsets:
#	150
#	14161
#	37926
#	54146
#	73826
#	86825
#	98985
#	114701
#	133310
#	162416
#	179485
#	209729
#
# Disc length: 3114 seconds
#
# Revision: 5
# Processed by: cddbd v1.5.1PL0 Copyright (c) Steve Scherf et al.
# Submitted via: CDex 1.50
#
DISCID=b60c280c
DTITLE=Charlie Robison - Life Of The Party
DYEAR=1998
DGENRE=Country
TTITLE0=Poor Man's Son
TTITLE1=Sunset Boulevard
TTITLE2=Barlight
TTITLE3=My Hometown
TTITLE4=Don't Call Me A Fool
TTITLE5=Arms Of Love
TTITLE6=I Don't Feel That Way
TTITLE7=You're Not The Best
TTITLE8=Loving County
TTITLE9=Waiting For The Mail
TTITLE10=Indianola
TTITLE11=Molly's Blues
EXTD=YEAR: 1998
EXTT0=
EXTT1=
EXTT2=
EXTT3=
EXTT4=
EXTT5=
EXTT6=
EXTT7=
EXTT8=
EXTT9=
EXTT10=
EXTT11=
PLAYORDER=
